HIERARCHY
ROOT Hips
{
  OFFSET 7.333 -26.027 -164.856
  CHANNELS 6 Xposition Yposition Zposition Zrotation Xrotation Yrotation
  JOINT LeftUpLeg
  {
    OFFSET 10.092 0.000 0.000
    CHANNELS 3 Zrotation Xrotation Yrotation
    JOINT LeftLeg
    {
      OFFSET 0.000 -38.160 -0.000
    CHANNELS 3 Zrotation Xrotation Yrotation
      JOINT LeftFoot
      {
        OFFSET -0.000 -24.040 0.000
    CHANNELS 3 Zrotation Xrotation Yrotation
        End Site
        {
          OFFSET -0.000 0.000 12.945
        }
      }
    }
  }
  JOINT RightUpLeg
  {
    OFFSET -10.092 -0.000 0.000
    CHANNELS 3 Zrotation Xrotation Yrotation
    JOINT RightLeg
    {
      OFFSET 0.000 -33.046 0.000
    CHANNELS 3 Zrotation Xrotation Yrotation
      JOINT RightFoot
      {
        OFFSET 0.000 -22.031 -0.000
    CHANNELS 3 Zrotation Xrotation Yrotation
        End Site
        {
          OFFSET 0.000 -0.000 11.863
        }
      }
    }
  }
  JOINT Spine
  {
    OFFSET -0.000 16.511 0.000
    CHANNELS 3 Zrotation Xrotation Yrotation
    JOINT LeftShoulder
    {
      OFFSET 0 16.511 0
    CHANNELS 3 Zrotation Xrotation Yrotation
      JOINT LeftArm
      {
        OFFSET 16.337 0.000 0.000
    CHANNELS 3 Zrotation Xrotation Yrotation
        JOINT LeftForeArm
        {
          OFFSET 0.000 -24.030 0.000
    CHANNELS 3 Zrotation Xrotation Yrotation
          JOINT LeftHand
          {
            OFFSET 0.000 -17.629 -0.000
    CHANNELS 3 Zrotation Xrotation Yrotation
            End Site
            {
              OFFSET 0.000 -11.753 -0.000
            }
          }
        }
      }
    }
    JOINT RightShoulder
    {
      OFFSET 0 16.511 0
    CHANNELS 3 Zrotation Xrotation Yrotation
      JOINT RightArm
      {
        OFFSET -16.337 0.000 0.000
    CHANNELS 3 Zrotation Xrotation Yrotation
        JOINT RightForeArm
        {
          OFFSET -0.000 -19.534 0.000
    CHANNELS 3 Zrotation Xrotation Yrotation
          JOINT RightHand
          {
            OFFSET 0.000 -19.514 -0.000
    CHANNELS 3 Zrotation Xrotation Yrotation
            End Site
            {
              OFFSET 0.000 -13.010 -0.000
            }
          }
        }
      }
    }
    JOINT Neck
    {
      OFFSET -0.000 16.511 0.000
    CHANNELS 3 Zrotation Xrotation Yrotation
      JOINT Head
      {
        OFFSET -0.000 12.493 -0.000
    CHANNELS 3 Zrotation Xrotation Yrotation
        End Site
        {
          OFFSET -0.000 8.328 -0.000
        }
      }
    }
  }
}
MOTION
Frames: 9
Frame Time: 0.0333333
0 0 0 -1.660360e-01 2.998570e+00 8.911661e+00 -3.586980e+00 5.457210e+00 3.415690e-01 -1.433657e+00 -9.519245e+00 -8.307232e-01 0 0 5.435748e-08 5.840754e-01 1.122147e+01 -1.145573e-01 4.476978e+00 -2.084810e+01 1.802850e+00 0 0 9.452636e-08 NaN NaN 7.400000e-05 0 0 0 1.013700e+01 -7.031485e+00 -1.045180e+01 -1.399780e+01 -1.750045e+00 5.653703e+00 0 5.191853e-08 NaN 0 0 0 -1.086946e+02 -3.290960e+01 -5.690671e+00 -5.206984e+01 -2.713793e+01 -2.768254e+01 3.422118e-09 NaN -4.441530e-08 -3.049565e-01 -2.332201e-01 -1.229158e-03 0 0 -1.625833e-07 
0 0 0 -5.346670e-01 3.270002e+00 8.505063e+00 -3.224780e+00 5.682790e+00 3.196878e-01 -3.446006e-02 -1.158280e+01 -6.518950e-01 0 0 7.298413e-08 1.578470e+00 1.053928e+01 -2.887580e-01 3.831052e+00 -2.053315e+01 1.892660e+00 0 0 NaN 2.309166e-07 NaN -6.400000e-05 0 0 0 1.053630e+01 -6.990866e+00 -1.225620e+01 -1.396464e+01 -2.288319e+00 5.552277e+00 0 8.288045e-08 NaN 0 0 0 -1.069431e+02 -3.402780e+01 -5.018424e+00 -5.991743e+01 -3.506952e+01 -4.455883e+01 NaN -3.537951e-08 -2.636505e-08 -6.206320e-01 1.829685e-01 1.903079e-03 0 0 NaN 
0 0 0 -5.055360e-01 3.011267e+00 7.255160e+00 -2.648956e+00 6.126110e+00 2.825890e-01 -9.696293e-01 -1.230820e+01 -7.689511e-01 0 0 NaN 1.480950e+00 1.101530e+01 -2.831153e-01 3.626254e+00 -2.118883e+01 1.838418e+00 0 0 NaN -3.352952e-08 -6.643245e-09 -4.600000e-05 0 0 0 1.102160e+01 -7.023486e+00 -1.058671e+01 -1.417336e+01 -2.783490e+00 5.397820e+00 0 NaN 1.499288e-08 0 0 0 -1.042561e+02 -3.827030e+01 -4.531368e+00 -7.215398e+01 -4.723850e+01 -6.929986e+01 2.528433e-08 1.016458e-07 -2.481043e-07 -5.731460e-01 2.346217e-01 2.347000e-03 0 0 NaN 
0 0 0 5.051500e-02 2.422217e+00 4.814899e+00 -3.247710e+00 7.078180e+00 4.006120e-01 -1.651820e+00 -1.188356e+01 -1.006680e+00 0 0 NaN 5.622020e-01 1.071540e+01 -1.045410e-01 3.714538e+00 -1.979719e+01 1.440557e+00 0 0 2.356081e-08 NaN -1.613743e-08 1.838219e-05 0 0 0 1.043780e+01 -6.974103e+00 -5.335302e+00 -1.407640e+01 -3.270110e+00 5.196446e+00 0 NaN 3.338538e-08 0 0 0 -9.779904e+01 -4.167410e+01 -9.405931e-01 -1.004928e+02 -5.896121e+01 -1.070851e+02 -3.010431e-08 NaN NaN -4.963340e-01 1.752967e-01 1.518000e-03 0 0 -3.901449e-07 
0 0 0 8.598470e-01 2.786241e+00 3.781851e+00 -5.663690e+00 7.474030e+00 7.390780e-01 1.977713e+00 -1.379650e+01 -8.571200e-01 0 0 5.466960e-08 -2.593470e+00 1.066360e+01 4.802090e-01 1.030099e+01 -1.998769e+01 2.679730e+00 0 0 2.507055e-08 2.606916e-07 -6.215997e-08 1.500000e-05 0 0 0 9.314150e+00 -6.919473e+00 -7.048830e+00 -1.292200e+01 -5.308190e+00 4.786125e+00 0 5.533563e-08 NaN 0 0 0 -9.228240e+01 -4.195100e+01 2.802300e+00 -1.431175e+02 -6.163520e+01 -1.518636e+02 4.656151e-08 NaN NaN 1.471620e-01 4.848040e-01 -1.246000e-03 0 0 NaN 
0 0 0 1.064370e+00 3.455040e+00 3.412208e+00 -6.703590e+00 6.515882e+00 7.638680e-01 4.136650e+00 -1.451400e+01 -6.327960e-01 0 0 7.355119e-08 -4.109320e+00 8.739369e+00 6.252300e-01 1.403040e+01 -1.776999e+01 3.069240e+00 0 0 3.264178e-08 NaN NaN 9.000638e-06 0 0 0 8.970960e+00 -7.115157e+00 -9.910310e+00 -1.256500e+01 -7.089207e+00 4.431830e+00 0 7.958674e-08 NaN 0 0 0 -8.850760e+01 -4.258043e+01 5.297080e+00 -1.695885e+02 -5.633606e+01 -1.767104e+02 1.719717e-08 -3.502777e-07 5.089053e-09 -2.945000e-02 6.427980e-01 3.298368e-04 0 0 NaN 
0 0 0 1.173970e+00 4.052892e+00 5.235760e+00 -7.058000e+00 6.044135e+00 7.469283e-01 3.809850e+00 -1.475720e+01 -8.181002e-01 0 0 NaN -4.338940e+00 8.317598e+00 6.283889e-01 1.370040e+01 -1.759650e+01 2.867330e+00 0 0 3.041043e-08 NaN 3.030303e-08 1.001754e-05 0 0 0 8.560326e+00 -6.991631e+00 -1.985635e+01 -1.193539e+01 -8.746100e+00 4.140040e+00 0 NaN 1.558607e-08 0 0 0 -8.649823e+01 -4.116642e+01 6.536516e+00 -1.787092e+02 -5.266720e+01 1.741028e+02 2.242763e-08 NaN -4.767619e-08 2.673500e-02 6.717435e-01 -3.360556e-04 0 0 -6.527644e-08 
0 0 0 5.085260e-01 3.603210e+00 5.282969e+00 -6.272600e+00 6.587700e+00 7.224620e-01 4.515810e+00 -1.590640e+01 -4.717277e-01 0 0 NaN -3.203210e+00 8.476412e+00 4.725470e-01 1.280550e+01 -1.662710e+01 2.781770e+00 0 0 NaN 1.704173e-08 1.898355e-07 3.499301e-05 0 0 0 9.139010e+00 -7.750400e+00 -1.736770e+01 -1.247560e+01 -7.665370e+00 4.329590e+00 0 NaN 1.678745e-08 0 0 0 -8.060750e+01 -4.284600e+01 1.050320e+01 1.760666e+02 -5.448776e+01 1.664980e+02 2.998920e-08 NaN -2.778564e-07 4.130290e-01 4.883687e-01 -3.514141e-03 0 0 -9.821521e-08 
0 0 0 -6.692582e-02 NaN 4.643138e+00 -4.697180e+00 7.344060e+00 7.224620e-01 3.053750e+00 -1.368460e+01 NaN 0 0 1.117869e-07 -2.176910e+00 NaN 3.732940e-01 NaN -1.853610e+01 2.446959e+00 0 0 2.725874e-08 -1.788644e-08 NaN NaN 0 0 0 NaN -8.922550e+00 NaN -1.218960e+01 NaN NaN 0 1.033912e-07 3.039933e-08 0 0 0 -8.262850e+01 -4.327572e+01 9.100710e+00 NaN -5.855871e+01 NaN 2.432361e-08 -1.040924e-07 NaN NaN NaN -3.155329e-03 0 0 -1.265380e-07 
